<?xml version="1.0" encoding="UTF-8"?>
<svg id="Layer_1" xmlns="http://www.w3.org/2000/svg" xmlns:xlink="http://www.w3.org/1999/xlink" version="1.1" viewBox="0 0 180 180">
  <!-- Generator: Adobe Illustrator 30.0.0, SVG Export Plug-In . SVG Version: 2.1.1 Build 123)  -->
  <defs>
    <style>
      .st0 {
        fill: none;
      }

      .st1 {
        fill: #232d4b;
      }

      .st2 {
        fill: #e57200;
      }

      .st3 {
        clip-path: url(#clippath-1);
      }

      .st4 {
        clip-path: url(#clippath-3);
      }

      .st5 {
        clip-path: url(#clippath-4);
      }

      .st6 {
        clip-path: url(#clippath-2);
      }

      .st7 {
        fill: #fff;
      }

      .st8 {
        clip-path: url(#clippath);
      }
    </style>
    <clipPath id="clippath">
      <rect class="st0" x="16" y="47.6" width="100" height="68.4"/>
    </clipPath>
    <clipPath id="clippath-1">
      <rect class="st0" x="8.1" y="118.7" width="114.6" height="12.3"/>
    </clipPath>
    <clipPath id="clippath-2">
      <rect class="st0" x="151.5" y="37.8" width="20.8" height="20.9"/>
    </clipPath>
    <clipPath id="clippath-3">
      <rect class="st0" x="151.5" y="120.1" width="20.8" height="21"/>
    </clipPath>
    <clipPath id="clippath-4">
      <rect class="st0" x="151.5" y="78.9" width="20.8" height="21.1"/>
    </clipPath>
  </defs>
  <rect class="st1" width="180" height="180" rx="40" ry="40"/>
  <g class="st8">
    <path class="st7" d="M108,107.7c0,.4-.3.7-.7.7H23.6c-.4,0-.7-.3-.7-.7v-52.9c0-.4.3-.7.7-.7h83.7c.4,0,.7.3.7.7v52.9ZM108,47.6H22.8c-3.7,0-6.7,3-6.7,6.7v61h98.6v-61c0-3.7-3-6.7-6.7-6.7"/>
  </g>
  <g class="st3">
    <path class="st7" d="M122.4,119.5c.2,0,.3.1.3.3-.4,2.9-1.8,5.4-3.8,7.4-2.4,2.4-5.7,3.9-9.4,3.9H21.3c-6.7,0-12.2-4.9-13.2-11.3,0-.2.1-.3.3-.3h43.7c.1,0,.3.1.3.3,0,1.6,1.3,2.8,2.9,2.8h20.3c1.6,0,2.9-1.3,2.9-2.8s.1-.3.3-.3h43.7"/>
  </g>
  <g class="st6">
    <path class="st2" d="M162,58.4c-5.7,0-10.3-4.6-10.3-10.3s4.6-10.3,10.3-10.3,10.3,4.6,10.3,10.3-4.6,10.3-10.3,10.3ZM162,44.6c-1.9,0-3.5,1.6-3.5,3.5s1.6,3.5,3.5,3.5,3.5-1.6,3.5-3.5-1.6-3.5-3.5-3.5Z"/>
  </g>
  <g class="st4">
    <path class="st2" d="M162,141.1c-5.7,0-10.3-4.6-10.3-10.3s4.6-10.3,10.3-10.3,10.3,4.6,10.3,10.3-4.6,10.3-10.3,10.3ZM162,127.2c-1.9,0-3.5,1.6-3.5,3.5s1.6,3.5,3.5,3.5,3.5-1.6,3.5-3.5-1.6-3.5-3.5-3.5Z"/>
  </g>
  <g class="st5">
    <path class="st2" d="M162,99.8c-5.7,0-10.3-4.6-10.3-10.3s4.6-10.3,10.3-10.3,10.3,4.6,10.3,10.3-4.6,10.3-10.3,10.3ZM162,85.9c-1.9,0-3.5,1.6-3.5,3.5s1.6,3.5,3.5,3.5,3.5-1.6,3.5-3.5-1.6-3.5-3.5-3.5Z"/>
  </g>
  <path class="st2" d="M120.7,85.3h34.5v8.3h-34.5v-8.3Z"/>
  <path class="st2" d="M143.4,79.1h-22.7v-8.3h20.6l13.8-20,6.8,4.7-15.1,21.8c-.8,1.1-2,1.8-3.4,1.8Z"/>
  <path class="st2" d="M155.1,128l-13.8-20h-20.6v-8.3h22.7c1.4,0,2.6.7,3.4,1.8l15.1,21.8-6.8,4.7Z"/>
</svg>