<?xml version="1.0" encoding="UTF-8"?>
<!--Generator: Apple Native CoreSVG 341-->
<!DOCTYPE svg
PUBLIC "-//W3C//DTD SVG 1.1//EN"
       "http://www.w3.org/Graphics/SVG/1.1/DTD/svg11.dtd">
<svg version="1.1" xmlns="http://www.w3.org/2000/svg" xmlns:xlink="http://www.w3.org/1999/xlink" viewBox="0 0 3300 2200">
 <!--glyph: "1011C6", point size: 100.0, font version: "21.0d6e2", template writer version: "138.0.0"-->
 <style>.defaults {-sfsymbols-variable-value-mode:draw;-sfsymbols-draw-reverses-motion-groups:true}

.monochrome-0 {-sfsymbols-variable-draw:0 1;-sfsymbols-motion-group:1;-sfsymbols-layer-tags:_enclosure.stroke building.columns.circle circle}
.monochrome-1 {-sfsymbols-motion-group:0;-sfsymbols-always-pulses:true;-sfsymbols-layer-tags:building.columns.circle}

.multicolor-0:tintColor {-sfsymbols-variable-draw:0 1;-sfsymbols-motion-group:1;-sfsymbols-layer-tags:_enclosure.stroke building.columns.circle circle}
.multicolor-1:tintColor {-sfsymbols-motion-group:0;-sfsymbols-always-pulses:true;-sfsymbols-layer-tags:building.columns.circle}

.hierarchical-0:secondary {-sfsymbols-variable-draw:0 1;-sfsymbols-motion-group:1;-sfsymbols-layer-tags:_enclosure.stroke building.columns.circle circle}
.hierarchical-1:primary {-sfsymbols-motion-group:0;-sfsymbols-always-pulses:true;-sfsymbols-layer-tags:building.columns.circle}

.SFSymbolsPreviewWireframe {fill:none;opacity:1.0;stroke:black;stroke-width:0.5}
</style>
 <g id="Notes">
  <rect height="2200" id="artboard" style="fill:white;opacity:1" width="3300" x="0" y="0"/>
  <line style="fill:none;stroke:black;opacity:1;stroke-width:0.5;" x1="263" x2="3036" y1="292" y2="292"/>
  <text style="stroke:none;fill:black;font-family:sans-serif;font-size:13;font-weight:bold;" transform="matrix(1 0 0 1 263 322)">Weight/Scale Variations</text>
  <text style="stroke:none;fill:black;font-family:sans-serif;font-size:13;text-anchor:middle;" transform="matrix(1 0 0 1 559.711 322)">Ultralight</text>
  <text style="stroke:none;fill:black;font-family:sans-serif;font-size:13;text-anchor:middle;" transform="matrix(1 0 0 1 856.422 322)">Thin</text>
  <text style="stroke:none;fill:black;font-family:sans-serif;font-size:13;text-anchor:middle;" transform="matrix(1 0 0 1 1153.13 322)">Light</text>
  <text style="stroke:none;fill:black;font-family:sans-serif;font-size:13;text-anchor:middle;" transform="matrix(1 0 0 1 1449.84 322)">Regular</text>
  <text style="stroke:none;fill:black;font-family:sans-serif;font-size:13;text-anchor:middle;" transform="matrix(1 0 0 1 1746.56 322)">Medium</text>
  <text style="stroke:none;fill:black;font-family:sans-serif;font-size:13;text-anchor:middle;" transform="matrix(1 0 0 1 2043.27 322)">Semibold</text>
  <text style="stroke:none;fill:black;font-family:sans-serif;font-size:13;text-anchor:middle;" transform="matrix(1 0 0 1 2339.98 322)">Bold</text>
  <text style="stroke:none;fill:black;font-family:sans-serif;font-size:13;text-anchor:middle;" transform="matrix(1 0 0 1 2636.69 322)">Heavy</text>
  <text style="stroke:none;fill:black;font-family:sans-serif;font-size:13;text-anchor:middle;" transform="matrix(1 0 0 1 2933.4 322)">Black</text>
  <line style="fill:none;stroke:black;opacity:1;stroke-width:0.5;" x1="263" x2="3036" y1="1903" y2="1903"/>
  <g transform="matrix(0.2 0 0 0.2 263 1933)">
   <path d="m46.2402 4.15039c21.7773 0 39.4531-17.627 39.4531-39.4043s-17.6758-39.4043-39.4531-39.4043c-21.7285 0-39.4043 17.627-39.4043 39.4043s17.6758 39.4043 39.4043 39.4043Zm0-7.42188c-17.6758 0-31.9336-14.3066-31.9336-31.9824s14.2578-31.9824 31.9336-31.9824 31.9824 14.3066 31.9824 31.9824-14.3066 31.9824-31.9824 31.9824Zm3.61328-17.7734v-28.4668c0-2.24609-1.46484-3.75977-3.71094-3.75977-2.14844 0-3.61328 1.51367-3.61328 3.75977v28.4668c0 2.19727 1.46484 3.71094 3.61328 3.71094 2.24609 0 3.71094-1.51367 3.71094-3.71094Zm-17.8223-10.5957h28.418c2.19727 0 3.71094-1.46484 3.71094-3.61328 0-2.19727-1.51367-3.71094-3.71094-3.71094h-28.418c-2.24609 0-3.75977 1.51367-3.75977 3.71094 0 2.14844 1.51367 3.61328 3.75977 3.61328Z"/>
  </g>
  <g transform="matrix(0.2 0 0 0.2 281.506 1933)">
   <path d="m58.5449 14.5508c27.4902 0 49.8047-22.3145 49.8047-49.8047s-22.3145-49.8047-49.8047-49.8047-49.8047 22.3145-49.8047 49.8047 22.3145 49.8047 49.8047 49.8047Zm0-8.30078c-22.9492 0-41.5039-18.5547-41.5039-41.5039s18.5547-41.5039 41.5039-41.5039 41.5039 18.5547 41.5039 41.5039-18.5547 41.5039-41.5039 41.5039Zm4.05273-23.0957v-36.9141c0-2.49023-1.70898-4.19922-4.15039-4.19922-2.39258 0-4.05273 1.70898-4.05273 4.19922v36.9141c0 2.44141 1.66016 4.15039 4.05273 4.15039 2.44141 0 4.15039-1.66016 4.15039-4.15039Zm-22.5586-14.4043h36.9629c2.44141 0 4.15039-1.61133 4.15039-4.00391 0-2.44141-1.70898-4.15039-4.15039-4.15039h-36.9629c-2.49023 0-4.15039 1.70898-4.15039 4.15039 0 2.39258 1.66016 4.00391 4.15039 4.00391Z"/>
  </g>
  <g transform="matrix(0.2 0 0 0.2 304.924 1933)">
   <path d="m74.8535 28.3203c35.1074 0 63.623-28.4668 63.623-63.5742s-28.5156-63.623-63.623-63.623-63.5742 28.5156-63.5742 63.623 28.4668 63.5742 63.5742 63.5742Zm0-9.08203c-30.127 0-54.4922-24.3652-54.4922-54.4922s24.3652-54.4922 54.4922-54.4922 54.4922 24.3652 54.4922 54.4922-24.3652 54.4922-54.4922 54.4922Zm4.44336-30.3223v-48.4863c0-2.73438-1.85547-4.63867-4.54102-4.63867-2.58789 0-4.44336 1.9043-4.44336 4.63867v48.4863c0 2.68555 1.85547 4.58984 4.44336 4.58984 2.68555 0 4.54102-1.85547 4.54102-4.58984Zm-28.7109-19.7754h48.4863c2.68555 0 4.58984-1.80664 4.58984-4.39453 0-2.73438-1.85547-4.58984-4.58984-4.58984h-48.4863c-2.73438 0-4.58984 1.85547-4.58984 4.58984 0 2.58789 1.85547 4.39453 4.58984 4.39453Z"/>
  </g>
  <text style="stroke:none;fill:black;font-family:sans-serif;font-size:13;font-weight:bold;" transform="matrix(1 0 0 1 263 1953)">Design Variations</text>
  <text style="stroke:none;fill:black;font-family:sans-serif;font-size:13;" transform="matrix(1 0 0 1 263 1971)">Symbols are supported in up to nine weights and three scales.</text>
  <text style="stroke:none;fill:black;font-family:sans-serif;font-size:13;" transform="matrix(1 0 0 1 263 1989)">For optimal layout with text and other symbols, vertically align</text>
  <text style="stroke:none;fill:black;font-family:sans-serif;font-size:13;" transform="matrix(1 0 0 1 263 2007)">symbols with the adjacent text.</text>
  <line style="fill:none;stroke:#00AEEF;stroke-width:0.5;opacity:1.0;" x1="776" x2="776" y1="1919" y2="1933"/>
  <g transform="matrix(0.2 0 0 0.2 776 1933)">
   <path d="m16.5527 0.78125c2.58789 0 3.85742-0.976562 4.78516-3.71094l20.5566-57.5195h0.244141l20.6055 57.5195c0.927734 2.73438 2.19727 3.71094 4.73633 3.71094 2.58789 0 4.24805-1.5625 4.24805-4.00391 0-0.830078-0.146484-1.61133-0.537109-2.63672l-22.9004-60.9863c-1.12305-2.97852-3.125-4.49219-6.25-4.49219-3.02734 0-5.07812 1.46484-6.15234 4.44336l-22.9004 61.084c-0.390625 1.02539-0.537109 1.80664-0.537109 2.63672 0 2.44141 1.5625 3.95508 4.10156 3.95508Zm10.2051-20.9473h30.6641c2.00195 0 3.66211-1.66016 3.66211-3.66211 0-2.05078-1.66016-3.66211-3.66211-3.66211h-30.6641c-2.00195 0-3.66211 1.61133-3.66211 3.66211 0 2.00195 1.66016 3.66211 3.66211 3.66211Z"/>
  </g>
  <line style="fill:none;stroke:#00AEEF;stroke-width:0.5;opacity:1.0;" x1="792.836" x2="792.836" y1="1919" y2="1933"/>
  <text style="stroke:none;fill:black;font-family:sans-serif;font-size:13;font-weight:bold;" transform="matrix(1 0 0 1 776 1953)">Margins</text>
  <text style="stroke:none;fill:black;font-family:sans-serif;font-size:13;" transform="matrix(1 0 0 1 776 1971)">Leading and trailing margins on the left and right side of each symbol</text>
  <text style="stroke:none;fill:black;font-family:sans-serif;font-size:13;" transform="matrix(1 0 0 1 776 1989)">can be adjusted by modifying the x-location of the margin guidelines.</text>
  <text style="stroke:none;fill:black;font-family:sans-serif;font-size:13;" transform="matrix(1 0 0 1 776 2007)">Modifications are automatically applied proportionally to all</text>
  <text style="stroke:none;fill:black;font-family:sans-serif;font-size:13;" transform="matrix(1 0 0 1 776 2025)">scales and weights.</text>
  <g transform="matrix(0.2 0 0 0.2 1289 1933)">
   <path d="m14.209 13.1348 7.86133 7.86133c4.29688 4.39453 9.32617 4.10156 13.8672-1.02539l60.6934-68.2129-4.88281-4.88281-60.2539 67.6758c-1.80664 1.95312-3.4668 2.44141-5.81055 0.0976562l-5.17578-5.12695c-2.29492-2.29492-1.80664-3.95508 0.195312-5.81055l67.4805-62.1582-4.88281-4.83398-68.0664 62.5977c-4.98047 4.58984-5.32227 9.47266-1.02539 13.8184Zm44.873-97.4609c-2.05078 2.00195-2.24609 4.88281-1.07422 6.78711 1.12305 1.80664 3.4668 3.02734 6.5918 2.24609 5.85938-1.66016 12.5977-2.39258 18.8965 0.927734l-2.68555 7.12891c-1.61133 4.00391-0.732422 6.88477 1.70898 9.42383l10.2539 10.3027c2.34375 2.39258 4.54102 2.44141 7.08008 1.95312l4.44336-0.732422 2.58789 2.53906-0.195312 2.24609c-0.0976562 2.29492 0.537109 4.29688 2.7832 6.49414l3.36914 3.32031c2.29492 2.29492 5.51758 2.49023 7.8125 0.195312l12.9883-13.0371c2.29492-2.34375 2.14844-5.37109-0.195312-7.66602l-3.41797-3.41797c-2.19727-2.19727-4.05273-3.02734-6.34766-2.88086l-2.34375 0.244141-2.44141-2.44141 1.02539-4.6875c0.634766-2.73438-0.244141-4.98047-2.88086-7.61719l-11.2793-11.1816c-12.9395-12.8418-35.5957-11.0352-46.6797-0.146484Zm7.08008 2.05078c8.78906-6.39648 25.9766-5.66406 33.6914 1.95312l12.3047 12.207c1.02539 1.02539 1.2207 1.80664 0.927734 3.32031l-1.46484 6.64062 6.73828 6.68945 4.39453-0.244141c1.12305-0.0488281 1.51367 0.0488281 2.34375 0.878906l2.53906 2.49023-10.8398 10.8398-2.49023-2.49023c-0.830078-0.878906-0.976562-1.2207-0.927734-2.39258l0.292969-4.3457-6.68945-6.73828-6.83594 1.17188c-1.41602 0.292969-2.05078 0.195312-3.17383-0.878906l-8.93555-8.88672c-1.07422-1.02539-1.17188-1.70898-0.488281-3.36914l4.58984-11.4746c-6.10352-6.34766-17.041-7.51953-25.5859-4.58984-0.683594 0.244141-0.927734-0.390625-0.390625-0.78125Z"/>
  </g>
  <text style="stroke:none;fill:black;font-family:sans-serif;font-size:13;font-weight:bold;" transform="matrix(1 0 0 1 1289 1953)">Exporting</text>
  <text style="stroke:none;fill:black;font-family:sans-serif;font-size:13;" transform="matrix(1 0 0 1 1289 1971)">Symbols should be outlined when exporting to ensure the</text>
  <text style="stroke:none;fill:black;font-family:sans-serif;font-size:13;" transform="matrix(1 0 0 1 1289 1989)">design is preserved when submitting to Xcode.</text>
  <text id="template-version" style="stroke:none;fill:black;font-family:sans-serif;font-size:13;text-anchor:end;" transform="matrix(1 0 0 1 3036 1933)">Template v.7.0</text>
  <text style="stroke:none;fill:black;font-family:sans-serif;font-size:13;text-anchor:end;" transform="matrix(1 0 0 1 3036 1951)">Requires Xcode 17 or greater</text>
  <text id="descriptive-name" style="stroke:none;fill:black;font-family:sans-serif;font-size:13;text-anchor:end;" transform="matrix(1 0 0 1 3036 1969)">Generated from building.columns.circle</text>
  <text style="stroke:none;fill:black;font-family:sans-serif;font-size:13;text-anchor:end;" transform="matrix(1 0 0 1 3036 1987)">Typeset at 100.0 points</text>
  <text style="stroke:none;fill:black;font-family:sans-serif;font-size:13;" transform="matrix(1 0 0 1 263 726)">Small</text>
  <text style="stroke:none;fill:black;font-family:sans-serif;font-size:13;" transform="matrix(1 0 0 1 263 1156)">Medium</text>
  <text style="stroke:none;fill:black;font-family:sans-serif;font-size:13;" transform="matrix(1 0 0 1 263 1586)">Large</text>
 </g>
 <g id="Guides">
  <g id="H-reference" style="fill:#27AAE1;stroke:none;" transform="matrix(1 0 0 1 339 696)">
   <path d="M0.993654 0L3.63775 0L29.3281-67.1323L30.0303-67.1323L30.0303-70.459L28.1226-70.459ZM11.6885-24.4799L46.9815-24.4799L46.2315-26.7285L12.4385-26.7285ZM55.1196 0L57.7637 0L30.6382-70.459L29.4326-70.459L29.4326-67.1323Z"/>
  </g>
  <line id="Baseline-S" style="fill:none;stroke:#27AAE1;opacity:1;stroke-width:0.5;" x1="263" x2="3036" y1="696" y2="696"/>
  <line id="Capline-S" style="fill:none;stroke:#27AAE1;opacity:1;stroke-width:0.5;" x1="263" x2="3036" y1="625.541" y2="625.541"/>
  <g id="H-reference" style="fill:#27AAE1;stroke:none;" transform="matrix(1 0 0 1 339 1126)">
   <path d="M0.993654 0L3.63775 0L29.3281-67.1323L30.0303-67.1323L30.0303-70.459L28.1226-70.459ZM11.6885-24.4799L46.9815-24.4799L46.2315-26.7285L12.4385-26.7285ZM55.1196 0L57.7637 0L30.6382-70.459L29.4326-70.459L29.4326-67.1323Z"/>
  </g>
  <line id="Baseline-M" style="fill:none;stroke:#27AAE1;opacity:1;stroke-width:0.5;" x1="263" x2="3036" y1="1126" y2="1126"/>
  <line id="Capline-M" style="fill:none;stroke:#27AAE1;opacity:1;stroke-width:0.5;" x1="263" x2="3036" y1="1055.54" y2="1055.54"/>
  <g id="H-reference" style="fill:#27AAE1;stroke:none;" transform="matrix(1 0 0 1 339 1556)">
   <path d="M0.993654 0L3.63775 0L29.3281-67.1323L30.0303-67.1323L30.0303-70.459L28.1226-70.459ZM11.6885-24.4799L46.9815-24.4799L46.2315-26.7285L12.4385-26.7285ZM55.1196 0L57.7637 0L30.6382-70.459L29.4326-70.459L29.4326-67.1323Z"/>
  </g>
  <line id="Baseline-L" style="fill:none;stroke:#27AAE1;opacity:1;stroke-width:0.5;" x1="263" x2="3036" y1="1556" y2="1556"/>
  <line id="Capline-L" style="fill:none;stroke:#27AAE1;opacity:1;stroke-width:0.5;" x1="263" x2="3036" y1="1485.54" y2="1485.54"/>
  <line id="right-margin-Black-S" style="fill:none;stroke:#00AEEF;stroke-width:0.5;opacity:1.0;" x1="2982.23" x2="2982.23" y1="600.785" y2="720.121"/>
  <line id="left-margin-Black-S" style="fill:none;stroke:#00AEEF;stroke-width:0.5;opacity:1.0;" x1="2884.57" x2="2884.57" y1="600.785" y2="720.121"/>
  <line id="right-margin-Regular-S" style="fill:none;stroke:#00AEEF;stroke-width:0.5;opacity:1.0;" x1="1496.11" x2="1496.11" y1="600.785" y2="720.121"/>
  <line id="left-margin-Regular-S" style="fill:none;stroke:#00AEEF;stroke-width:0.5;opacity:1.0;" x1="1403.58" x2="1403.58" y1="600.785" y2="720.121"/>
  <line id="right-margin-Ultralight-S" style="fill:none;stroke:#00AEEF;stroke-width:0.5;opacity:1.0;" x1="603.773" x2="603.773" y1="600.785" y2="720.121"/>
  <line id="left-margin-Ultralight-S" style="fill:none;stroke:#00AEEF;stroke-width:0.5;opacity:1.0;" x1="515.649" x2="515.649" y1="600.785" y2="720.121"/>
 </g>
 <g id="Symbols">
  <g id="Black-S" transform="matrix(1 0 0 1 2884.57 696)">
   <path class="monochrome-0 multicolor-0:tintColor hierarchical-0:secondary SFSymbolsPreviewWireframe" d="M48.8281 6.73828C72.0215 6.73828 90.8203-12.0605 90.8203-35.2539C90.8203-58.4473 72.0215-77.2461 48.8281-77.2461C25.6348-77.2461 6.83594-58.4473 6.83594-35.2539C6.83594-12.0605 25.6348 6.73828 48.8281 6.73828ZM48.8281-7.42188C33.4473-7.42188 20.9961-19.873 20.9961-35.2539C20.9961-50.6348 33.4473-63.0859 48.8281-63.0859C64.209-63.0859 76.6602-50.6348 76.6602-35.2539C76.6602-19.873 64.209-7.42188 48.8281-7.42188Z" data-clipstroke-keyframes="0 4 0 0.49909934 1.5010297 0 0.24858454 0.2505148 1.749485 0 0.49588796 0.0032113674 1.996659 0 0.7506426 0.7484567 1.251544 0 1 0.49909934 1.5010297"/>
   <path class="monochrome-1 multicolor-1:tintColor hierarchical-1:primary SFSymbolsPreviewWireframe" d="M33.8379-43.8965L63.7695-43.8965C65.1367-43.8965 65.918-44.9219 65.918-45.9473C65.918-46.6797 65.4785-47.3633 64.6484-47.8516L51.123-55.6152C50.4395-56.0547 49.5605-56.2988 48.8281-56.2988C48.0469-56.2988 47.168-56.0547 46.4844-55.6152L32.959-47.8516C32.1289-47.3633 31.6895-46.6797 31.6895-45.9473C31.6895-44.9219 32.5195-43.8965 33.8379-43.8965ZM29.8828-21.7773C29.8828-20.6543 30.8105-19.7266 31.8848-19.7266L65.1855-19.7266C66.3086-19.7266 67.2363-20.6055 67.2363-21.7773C67.2363-22.8516 66.3086-23.7793 65.1855-23.7793L31.8848-23.7793C30.8105-23.7793 29.8828-22.8516 29.8828-21.7773ZM33.1055-26.3184C33.1055-25.4395 33.6426-24.9023 34.5703-24.9023L38.8184-24.9023C39.7461-24.9023 40.2832-25.4395 40.2832-26.3184L40.2832-26.5625C40.2832-27.4414 39.6973-27.9785 38.8184-27.9785L38.4277-27.9785L38.4277-39.7461L38.8184-39.7461C39.6973-39.7461 40.2832-40.2344 40.2832-41.1133L40.2832-41.3574C40.2832-42.2363 39.7461-42.8223 38.8184-42.8223L34.5703-42.8223C33.6426-42.8223 33.1055-42.2363 33.1055-41.3574L33.1055-41.1133C33.1055-40.2344 33.6914-39.7461 34.5703-39.7461L34.9609-39.7461L34.9609-27.9785L34.5703-27.9785C33.6914-27.9785 33.1055-27.4414 33.1055-26.5625ZM41.2109-26.3184C41.2109-25.4395 41.748-24.9023 42.627-24.9023L46.9238-24.9023C47.8027-24.9023 48.3398-25.4395 48.3398-26.3184L48.3398-26.5625C48.3398-27.4414 47.7539-27.9785 46.9238-27.9785L46.4844-27.9785L46.4844-39.7461L46.9238-39.7461C47.7539-39.7461 48.3398-40.2344 48.3398-41.1133L48.3398-41.3574C48.3398-42.2363 47.8027-42.8223 46.9238-42.8223L42.627-42.8223C41.748-42.8223 41.2109-42.2363 41.2109-41.3574L41.2109-41.1133C41.2109-40.2344 41.748-39.7461 42.627-39.7461L43.0176-39.7461L43.0176-27.9785L42.627-27.9785C41.748-27.9785 41.2109-27.4414 41.2109-26.5625ZM49.2676-26.3184C49.2676-25.4395 49.8047-24.9023 50.6836-24.9023L54.9805-24.9023C55.8594-24.9023 56.3965-25.4395 56.3965-26.3184L56.3965-26.5625C56.3965-27.4414 55.8594-27.9785 54.9805-27.9785L54.5898-27.9785L54.5898-39.7461L54.9805-39.7461C55.8594-39.7461 56.3965-40.2344 56.3965-41.1133L56.3965-41.3574C56.3965-42.2363 55.8594-42.8223 54.9805-42.8223L50.6836-42.8223C49.8047-42.8223 49.2676-42.2363 49.2676-41.3574L49.2676-41.1133C49.2676-40.2344 49.8047-39.7461 50.6836-39.7461L51.123-39.7461L51.123-27.9785L50.6836-27.9785C49.8047-27.9785 49.2676-27.4414 49.2676-26.5625ZM57.3242-26.3184C57.3242-25.4395 57.8613-24.9023 58.7891-24.9023L63.0371-24.9023C63.916-24.9023 64.502-25.4395 64.502-26.3184L64.502-26.5625C64.502-27.4414 63.916-27.9785 63.0371-27.9785L62.6465-27.9785L62.6465-39.7461L63.0371-39.7461C63.916-39.7461 64.502-40.2344 64.502-41.1133L64.502-41.3574C64.502-42.2363 63.916-42.8223 63.0371-42.8223L58.7891-42.8223C57.8613-42.8223 57.3242-42.2363 57.3242-41.3574L57.3242-41.1133C57.3242-40.2344 57.9102-39.7461 58.7891-39.7461L59.1797-39.7461L59.1797-27.9785L58.7891-27.9785C57.9102-27.9785 57.3242-27.4414 57.3242-26.5625Z"/>
  </g>
  <g id="Regular-S" transform="matrix(1 0 0 1 1403.58 696)">
   <path class="monochrome-0 multicolor-0:tintColor hierarchical-0:secondary SFSymbolsPreviewWireframe" d="M46.2402 4.15039C68.0176 4.15039 85.6934-13.4766 85.6934-35.2539C85.6934-57.0312 68.0176-74.6582 46.2402-74.6582C24.5117-74.6582 6.83594-57.0312 6.83594-35.2539C6.83594-13.4766 24.5117 4.15039 46.2402 4.15039ZM46.2402-3.27148C28.5645-3.27148 14.3066-17.5781 14.3066-35.2539C14.3066-52.9297 28.5645-67.2363 46.2402-67.2363C63.916-67.2363 78.2227-52.9297 78.2227-35.2539C78.2227-17.5781 63.916-3.27148 46.2402-3.27148Z" data-clipstroke-keyframes="0 4 0 0.49914446 1.5008684 0 0.24828511 0.25085935 1.7491465 0 0.49580374 0.0033407123 1.9966576 0 0.75060123 0.7485432 1.2514638 0 1 0.49914446 1.5008684"/>
   <path class="monochrome-1 multicolor-1:tintColor hierarchical-1:primary SFSymbolsPreviewWireframe" d="M29.3457-43.1641L63.0859-43.1641C64.3066-43.1641 64.9902-44.0918 64.9902-45.0195C64.9902-45.6543 64.6484-46.3379 63.8184-46.7773L48.6328-55.5176C47.8516-56.0547 46.9727-56.25 46.1914-56.25C45.4102-56.25 44.5801-56.0547 43.8477-55.5176L28.6133-46.7773C27.7832-46.3379 27.3926-45.6543 27.3926-45.0195C27.3926-44.0918 28.125-43.1641 29.3457-43.1641ZM25.6836-19.043C25.6836-18.0664 26.5137-17.1875 27.4902-17.1875L64.8926-17.1875C65.918-17.1875 66.6992-18.0664 66.6992-19.043C66.6992-20.0684 65.918-20.8984 64.8926-20.8984L27.4902-20.8984C26.5137-20.8984 25.6836-20.0684 25.6836-19.043ZM28.7598-23.291C28.7598-22.4609 29.248-21.9238 30.127-21.9238L34.9609-21.9238C35.791-21.9238 36.377-22.4609 36.377-23.291L36.377-23.5352C36.377-24.4141 35.791-24.9512 34.9609-24.9512L34.2773-24.9512L34.2773-39.1113L34.9609-39.1113C35.791-39.1113 36.377-39.6484 36.377-40.5762L36.377-40.8203C36.377-41.6504 35.791-42.1875 34.9609-42.1875L30.127-42.1875C29.248-42.1875 28.7598-41.6504 28.7598-40.8203L28.7598-40.5762C28.7598-39.6484 29.248-39.1113 30.127-39.1113L30.7617-39.1113L30.7617-24.9512L30.127-24.9512C29.248-24.9512 28.7598-24.4141 28.7598-23.5352ZM37.8418-23.291C37.8418-22.4609 38.3789-21.9238 39.2578-21.9238L44.043-21.9238C44.9219-21.9238 45.459-22.4609 45.459-23.291L45.459-23.5352C45.459-24.4141 44.9219-24.9512 44.043-24.9512L43.3594-24.9512L43.3594-39.1113L44.043-39.1113C44.9219-39.1113 45.459-39.6484 45.459-40.5762L45.459-40.8203C45.459-41.6504 44.9219-42.1875 44.043-42.1875L39.2578-42.1875C38.3789-42.1875 37.8418-41.6504 37.8418-40.8203L37.8418-40.5762C37.8418-39.6484 38.3789-39.1113 39.2578-39.1113L39.9414-39.1113L39.9414-24.9512L39.2578-24.9512C38.3789-24.9512 37.8418-24.4141 37.8418-23.5352ZM46.9727-23.291C46.9727-22.4609 47.5098-21.9238 48.3887-21.9238L53.1738-21.9238C54.0527-21.9238 54.541-22.4609 54.541-23.291L54.541-23.5352C54.541-24.4141 54.0527-24.9512 53.1738-24.9512L52.4902-24.9512L52.4902-39.1113L53.1738-39.1113C54.0527-39.1113 54.541-39.6484 54.541-40.5762L54.541-40.8203C54.541-41.6504 54.0527-42.1875 53.1738-42.1875L48.3887-42.1875C47.5098-42.1875 46.9727-41.6504 46.9727-40.8203L46.9727-40.5762C46.9727-39.6484 47.5098-39.1113 48.3887-39.1113L49.0723-39.1113L49.0723-24.9512L48.3887-24.9512C47.5098-24.9512 46.9727-24.4141 46.9727-23.5352ZM56.0547-23.291C56.0547-22.4609 56.6406-21.9238 57.4707-21.9238L62.3047-21.9238C63.1348-21.9238 63.6719-22.4609 63.6719-23.291L63.6719-23.5352C63.6719-24.4141 63.1348-24.9512 62.3047-24.9512L61.6699-24.9512L61.6699-39.1113L62.3047-39.1113C63.1348-39.1113 63.6719-39.6484 63.6719-40.5762L63.6719-40.8203C63.6719-41.6504 63.1348-42.1875 62.3047-42.1875L57.4707-42.1875C56.6406-42.1875 56.0547-41.6504 56.0547-40.8203L56.0547-40.5762C56.0547-39.6484 56.6406-39.1113 57.4707-39.1113L58.1055-39.1113L58.1055-24.9512L57.4707-24.9512C56.6406-24.9512 56.0547-24.4141 56.0547-23.5352Z"/>
  </g>
  <g id="Ultralight-S" transform="matrix(1 0 0 1 515.649 696)">
   <path class="monochrome-0 multicolor-0:tintColor hierarchical-0:secondary SFSymbolsPreviewWireframe" d="M44.0606 1.97072C64.6118 1.97072 81.2886-14.7026 81.2886-35.2539C81.2886-55.8052 64.6118-72.4785 44.0606-72.4785C23.5127-72.4785 6.83594-55.8052 6.83594-35.2539C6.83594-14.7026 23.5127 1.97072 44.0606 1.97072ZM44.0606-0.274438C24.7046-0.274438 9.0391-15.898 9.0391-35.2539C9.0391-54.6099 24.7046-70.2334 44.0606-70.2334C63.4165-70.2334 79.04-54.6099 79.04-35.2539C79.04-15.898 63.4165-0.274438 44.0606-0.274438Z" data-clipstroke-keyframes="0 4 0 0.49911258 1.5011578 0 0.24859153 0.25052106 1.7495481 0 0.49577427 0.0033383023 1.9966562 0 0.75064886 0.74846375 1.2516088 0 1 0.49911258 1.5011578"/>
   <path class="monochrome-1 multicolor-1:tintColor hierarchical-1:primary SFSymbolsPreviewWireframe" d="M24.5777-45.2529L63.54-45.2529C64.1704-45.2529 64.5815-45.7265 64.5815-46.291C64.5815-46.5625 64.376-46.9736 64-47.186L46.2715-57.4248C45.5811-57.8257 44.7476-58.021 44.0571-58.021C43.3213-58.021 42.4912-57.7803 41.8496-57.4248L24.1177-47.186C23.7417-46.9736 23.5327-46.5625 23.5327-46.291C23.5327-45.7265 23.9473-45.2529 24.5777-45.2529ZM22.732-16.9087C22.732-16.3408 23.1533-15.916 23.7212-15.916L64.3931-15.916C64.9644-15.916 65.3823-16.3408 65.3823-16.9087C65.3823-17.48 64.9644-17.9468 64.3931-17.9468L23.7212-17.9468C23.1533-17.9468 22.732-17.48 22.732-16.9087ZM26.0352-20.2031C26.0352-19.7363 26.3418-19.3809 26.812-19.3809L32.1455-19.3809C32.5669-19.3809 32.9258-19.7363 32.9258-20.2031L32.9258-20.5381C32.9258-20.9175 32.5669-21.3184 32.1455-21.3184L30.4629-21.3184L30.4629-41.8813L32.1455-41.8813C32.5669-41.8813 32.9258-42.1914 32.9258-42.7104L32.9258-43C32.9258-43.4668 32.5669-43.8223 32.1455-43.8223L26.812-43.8223C26.3418-43.8223 26.0352-43.4668 26.0352-43L26.0352-42.7104C26.0352-42.1914 26.3418-41.8813 26.812-41.8813L28.5366-41.8813L28.5366-21.3184L26.812-21.3184C26.3418-21.3184 26.0352-20.9175 26.0352-20.5381ZM35.7075-20.2031C35.7075-19.7363 36.1084-19.3809 36.5786-19.3809L41.8179-19.3809C42.3335-19.3809 42.7344-19.7363 42.7344-20.2031L42.7344-20.5381C42.7344-20.9175 42.3335-21.3184 41.8179-21.3184L40.1807-21.3184L40.1807-41.8813L41.8179-41.8813C42.3335-41.8813 42.7344-42.1914 42.7344-42.7104L42.7344-43C42.7344-43.4668 42.3335-43.8223 41.8179-43.8223L36.5786-43.8223C36.1084-43.8223 35.7075-43.4668 35.7075-43L35.7075-42.7104C35.7075-42.1914 36.1084-41.8813 36.5786-41.8813L38.2158-41.8813L38.2158-21.3184L36.5786-21.3184C36.1084-21.3184 35.7075-20.9175 35.7075-20.5381ZM45.4287-20.2031C45.4287-19.7363 45.7842-19.3809 46.2998-19.3809L51.5845-19.3809C52.0547-19.3809 52.4068-19.7363 52.4068-20.2031L52.4068-20.5381C52.4068-20.9175 52.0547-21.3184 51.5845-21.3184L49.9473-21.3184L49.9473-41.8813L51.5845-41.8813C52.0547-41.8813 52.4068-42.1914 52.4068-42.7104L52.4068-43C52.4068-43.4668 52.0547-43.8223 51.5845-43.8223L46.2998-43.8223C45.7842-43.8223 45.4287-43.4668 45.4287-43L45.4287-42.7104C45.4287-42.1914 45.7842-41.8813 46.2998-41.8813L47.937-41.8813L47.937-21.3184L46.2998-21.3184C45.7842-21.3184 45.4287-20.9175 45.4287-20.5381ZM55.1919-20.2031C55.1919-19.7363 55.5508-19.3809 56.0176-19.3809L61.3057-19.3809C61.7725-19.3809 62.1279-19.7363 62.1279-20.2031L62.1279-20.5381C62.1279-20.9175 61.7725-21.3184 61.3057-21.3184L59.6719-21.3184L59.6719-41.8813L61.3057-41.8813C61.7725-41.8813 62.1279-42.1914 62.1279-42.7104L62.1279-43C62.1279-43.4668 61.7725-43.8223 61.3057-43.8223L56.0176-43.8223C55.5508-43.8223 55.1919-43.4668 55.1919-43L55.1919-42.7104C55.1919-42.1914 55.5508-41.8813 56.0176-41.8813L57.6968-41.8813L57.6968-21.3184L56.0176-21.3184C55.5508-21.3184 55.1919-20.9175 55.1919-20.5381Z"/>
  </g>
 </g>
</svg>
