<?xml version="1.0" encoding="UTF-8"?>
<!--Generator: Apple Native CoreSVG 341-->
<!DOCTYPE svg
PUBLIC "-//W3C//DTD SVG 1.1//EN"
       "http://www.w3.org/Graphics/SVG/1.1/DTD/svg11.dtd">
<svg version="1.1" xmlns="http://www.w3.org/2000/svg" xmlns:xlink="http://www.w3.org/1999/xlink" viewBox="0 0 3300 2200">
 <!--glyph: "1031DE", point size: 100.0, font version: "21.0d6e2", template writer version: "138.0.0"-->
 <style>.defaults {-sfsymbols-draw-reverses-motion-groups:true}

.monochrome-0 {-sfsymbols-motion-group:1;-sfsymbols-layer-tags:_enclosure.stroke key.shield shield}
.monochrome-1 {-sfsymbols-motion-group:0;-sfsymbols-always-pulses:true;-sfsymbols-layer-tags:key.shield}

.multicolor-0:tintColor {-sfsymbols-motion-group:1;-sfsymbols-layer-tags:_enclosure.stroke key.shield shield}
.multicolor-1:tintColor {-sfsymbols-motion-group:0;-sfsymbols-always-pulses:true;-sfsymbols-layer-tags:key.shield}

.hierarchical-0:secondary {-sfsymbols-motion-group:1;-sfsymbols-layer-tags:_enclosure.stroke key.shield shield}
.hierarchical-1:primary {-sfsymbols-motion-group:0;-sfsymbols-always-pulses:true;-sfsymbols-layer-tags:key.shield}

.SFSymbolsPreviewWireframe {fill:none;opacity:1.0;stroke:black;stroke-width:0.5}
</style>
 <g id="Notes">
  <rect height="2200" id="artboard" style="fill:white;opacity:1" width="3300" x="0" y="0"/>
  <line style="fill:none;stroke:black;opacity:1;stroke-width:0.5;" x1="263" x2="3036" y1="292" y2="292"/>
  <text style="stroke:none;fill:black;font-family:sans-serif;font-size:13;font-weight:bold;" transform="matrix(1 0 0 1 263 322)">Weight/Scale Variations</text>
  <text style="stroke:none;fill:black;font-family:sans-serif;font-size:13;text-anchor:middle;" transform="matrix(1 0 0 1 559.711 322)">Ultralight</text>
  <text style="stroke:none;fill:black;font-family:sans-serif;font-size:13;text-anchor:middle;" transform="matrix(1 0 0 1 856.422 322)">Thin</text>
  <text style="stroke:none;fill:black;font-family:sans-serif;font-size:13;text-anchor:middle;" transform="matrix(1 0 0 1 1153.13 322)">Light</text>
  <text style="stroke:none;fill:black;font-family:sans-serif;font-size:13;text-anchor:middle;" transform="matrix(1 0 0 1 1449.84 322)">Regular</text>
  <text style="stroke:none;fill:black;font-family:sans-serif;font-size:13;text-anchor:middle;" transform="matrix(1 0 0 1 1746.56 322)">Medium</text>
  <text style="stroke:none;fill:black;font-family:sans-serif;font-size:13;text-anchor:middle;" transform="matrix(1 0 0 1 2043.27 322)">Semibold</text>
  <text style="stroke:none;fill:black;font-family:sans-serif;font-size:13;text-anchor:middle;" transform="matrix(1 0 0 1 2339.98 322)">Bold</text>
  <text style="stroke:none;fill:black;font-family:sans-serif;font-size:13;text-anchor:middle;" transform="matrix(1 0 0 1 2636.69 322)">Heavy</text>
  <text style="stroke:none;fill:black;font-family:sans-serif;font-size:13;text-anchor:middle;" transform="matrix(1 0 0 1 2933.4 322)">Black</text>
  <line style="fill:none;stroke:black;opacity:1;stroke-width:0.5;" x1="263" x2="3036" y1="1903" y2="1903"/>
  <g transform="matrix(0.2 0 0 0.2 263 1933)">
   <path d="m46.2402 4.15039c21.7773 0 39.4531-17.627 39.4531-39.4043s-17.6758-39.4043-39.4531-39.4043c-21.7285 0-39.4043 17.627-39.4043 39.4043s17.6758 39.4043 39.4043 39.4043Zm0-7.42188c-17.6758 0-31.9336-14.3066-31.9336-31.9824s14.2578-31.9824 31.9336-31.9824 31.9824 14.3066 31.9824 31.9824-14.3066 31.9824-31.9824 31.9824Zm3.61328-17.7734v-28.4668c0-2.24609-1.46484-3.75977-3.71094-3.75977-2.14844 0-3.61328 1.51367-3.61328 3.75977v28.4668c0 2.19727 1.46484 3.71094 3.61328 3.71094 2.24609 0 3.71094-1.51367 3.71094-3.71094Zm-17.8223-10.5957h28.418c2.19727 0 3.71094-1.46484 3.71094-3.61328 0-2.19727-1.51367-3.71094-3.71094-3.71094h-28.418c-2.24609 0-3.75977 1.51367-3.75977 3.71094 0 2.14844 1.51367 3.61328 3.75977 3.61328Z"/>
  </g>
  <g transform="matrix(0.2 0 0 0.2 281.506 1933)">
   <path d="m58.5449 14.5508c27.4902 0 49.8047-22.3145 49.8047-49.8047s-22.3145-49.8047-49.8047-49.8047-49.8047 22.3145-49.8047 49.8047 22.3145 49.8047 49.8047 49.8047Zm0-8.30078c-22.9492 0-41.5039-18.5547-41.5039-41.5039s18.5547-41.5039 41.5039-41.5039 41.5039 18.5547 41.5039 41.5039-18.5547 41.5039-41.5039 41.5039Zm4.05273-23.0957v-36.9141c0-2.49023-1.70898-4.19922-4.15039-4.19922-2.39258 0-4.05273 1.70898-4.05273 4.19922v36.9141c0 2.44141 1.66016 4.15039 4.05273 4.15039 2.44141 0 4.15039-1.66016 4.15039-4.15039Zm-22.5586-14.4043h36.9629c2.44141 0 4.15039-1.61133 4.15039-4.00391 0-2.44141-1.70898-4.15039-4.15039-4.15039h-36.9629c-2.49023 0-4.15039 1.70898-4.15039 4.15039 0 2.39258 1.66016 4.00391 4.15039 4.00391Z"/>
  </g>
  <g transform="matrix(0.2 0 0 0.2 304.924 1933)">
   <path d="m74.8535 28.3203c35.1074 0 63.623-28.4668 63.623-63.5742s-28.5156-63.623-63.623-63.623-63.5742 28.5156-63.5742 63.623 28.4668 63.5742 63.5742 63.5742Zm0-9.08203c-30.127 0-54.4922-24.3652-54.4922-54.4922s24.3652-54.4922 54.4922-54.4922 54.4922 24.3652 54.4922 54.4922-24.3652 54.4922-54.4922 54.4922Zm4.44336-30.3223v-48.4863c0-2.73438-1.85547-4.63867-4.54102-4.63867-2.58789 0-4.44336 1.9043-4.44336 4.63867v48.4863c0 2.68555 1.85547 4.58984 4.44336 4.58984 2.68555 0 4.54102-1.85547 4.54102-4.58984Zm-28.7109-19.7754h48.4863c2.68555 0 4.58984-1.80664 4.58984-4.39453 0-2.73438-1.85547-4.58984-4.58984-4.58984h-48.4863c-2.73438 0-4.58984 1.85547-4.58984 4.58984 0 2.58789 1.85547 4.39453 4.58984 4.39453Z"/>
  </g>
  <text style="stroke:none;fill:black;font-family:sans-serif;font-size:13;font-weight:bold;" transform="matrix(1 0 0 1 263 1953)">Design Variations</text>
  <text style="stroke:none;fill:black;font-family:sans-serif;font-size:13;" transform="matrix(1 0 0 1 263 1971)">Symbols are supported in up to nine weights and three scales.</text>
  <text style="stroke:none;fill:black;font-family:sans-serif;font-size:13;" transform="matrix(1 0 0 1 263 1989)">For optimal layout with text and other symbols, vertically align</text>
  <text style="stroke:none;fill:black;font-family:sans-serif;font-size:13;" transform="matrix(1 0 0 1 263 2007)">symbols with the adjacent text.</text>
  <line style="fill:none;stroke:#00AEEF;stroke-width:0.5;opacity:1.0;" x1="776" x2="776" y1="1919" y2="1933"/>
  <g transform="matrix(0.2 0 0 0.2 776 1933)">
   <path d="m16.5527 0.78125c2.58789 0 3.85742-0.976562 4.78516-3.71094l20.5566-57.5195h0.244141l20.6055 57.5195c0.927734 2.73438 2.19727 3.71094 4.73633 3.71094 2.58789 0 4.24805-1.5625 4.24805-4.00391 0-0.830078-0.146484-1.61133-0.537109-2.63672l-22.9004-60.9863c-1.12305-2.97852-3.125-4.49219-6.25-4.49219-3.02734 0-5.07812 1.46484-6.15234 4.44336l-22.9004 61.084c-0.390625 1.02539-0.537109 1.80664-0.537109 2.63672 0 2.44141 1.5625 3.95508 4.10156 3.95508Zm10.2051-20.9473h30.6641c2.00195 0 3.66211-1.66016 3.66211-3.66211 0-2.05078-1.66016-3.66211-3.66211-3.66211h-30.6641c-2.00195 0-3.66211 1.61133-3.66211 3.66211 0 2.00195 1.66016 3.66211 3.66211 3.66211Z"/>
  </g>
  <line style="fill:none;stroke:#00AEEF;stroke-width:0.5;opacity:1.0;" x1="792.836" x2="792.836" y1="1919" y2="1933"/>
  <text style="stroke:none;fill:black;font-family:sans-serif;font-size:13;font-weight:bold;" transform="matrix(1 0 0 1 776 1953)">Margins</text>
  <text style="stroke:none;fill:black;font-family:sans-serif;font-size:13;" transform="matrix(1 0 0 1 776 1971)">Leading and trailing margins on the left and right side of each symbol</text>
  <text style="stroke:none;fill:black;font-family:sans-serif;font-size:13;" transform="matrix(1 0 0 1 776 1989)">can be adjusted by modifying the x-location of the margin guidelines.</text>
  <text style="stroke:none;fill:black;font-family:sans-serif;font-size:13;" transform="matrix(1 0 0 1 776 2007)">Modifications are automatically applied proportionally to all</text>
  <text style="stroke:none;fill:black;font-family:sans-serif;font-size:13;" transform="matrix(1 0 0 1 776 2025)">scales and weights.</text>
  <g transform="matrix(0.2 0 0 0.2 1289 1933)">
   <path d="m14.209 13.1348 7.86133 7.86133c4.29688 4.39453 9.32617 4.10156 13.8672-1.02539l60.6934-68.2129-4.88281-4.88281-60.2539 67.6758c-1.80664 1.95312-3.4668 2.44141-5.81055 0.0976562l-5.17578-5.12695c-2.29492-2.29492-1.80664-3.95508 0.195312-5.81055l67.4805-62.1582-4.88281-4.83398-68.0664 62.5977c-4.98047 4.58984-5.32227 9.47266-1.02539 13.8184Zm44.873-97.4609c-2.05078 2.00195-2.24609 4.88281-1.07422 6.78711 1.12305 1.80664 3.4668 3.02734 6.5918 2.24609 5.85938-1.66016 12.5977-2.39258 18.8965 0.927734l-2.68555 7.12891c-1.61133 4.00391-0.732422 6.88477 1.70898 9.42383l10.2539 10.3027c2.34375 2.39258 4.54102 2.44141 7.08008 1.95312l4.44336-0.732422 2.58789 2.53906-0.195312 2.24609c-0.0976562 2.29492 0.537109 4.29688 2.7832 6.49414l3.36914 3.32031c2.29492 2.29492 5.51758 2.49023 7.8125 0.195312l12.9883-13.0371c2.29492-2.34375 2.14844-5.37109-0.195312-7.66602l-3.41797-3.41797c-2.19727-2.19727-4.05273-3.02734-6.34766-2.88086l-2.34375 0.244141-2.44141-2.44141 1.02539-4.6875c0.634766-2.73438-0.244141-4.98047-2.88086-7.61719l-11.2793-11.1816c-12.9395-12.8418-35.5957-11.0352-46.6797-0.146484Zm7.08008 2.05078c8.78906-6.39648 25.9766-5.66406 33.6914 1.95312l12.3047 12.207c1.02539 1.02539 1.2207 1.80664 0.927734 3.32031l-1.46484 6.64062 6.73828 6.68945 4.39453-0.244141c1.12305-0.0488281 1.51367 0.0488281 2.34375 0.878906l2.53906 2.49023-10.8398 10.8398-2.49023-2.49023c-0.830078-0.878906-0.976562-1.2207-0.927734-2.39258l0.292969-4.3457-6.68945-6.73828-6.83594 1.17188c-1.41602 0.292969-2.05078 0.195312-3.17383-0.878906l-8.93555-8.88672c-1.07422-1.02539-1.17188-1.70898-0.488281-3.36914l4.58984-11.4746c-6.10352-6.34766-17.041-7.51953-25.5859-4.58984-0.683594 0.244141-0.927734-0.390625-0.390625-0.78125Z"/>
  </g>
  <text style="stroke:none;fill:black;font-family:sans-serif;font-size:13;font-weight:bold;" transform="matrix(1 0 0 1 1289 1953)">Exporting</text>
  <text style="stroke:none;fill:black;font-family:sans-serif;font-size:13;" transform="matrix(1 0 0 1 1289 1971)">Symbols should be outlined when exporting to ensure the</text>
  <text style="stroke:none;fill:black;font-family:sans-serif;font-size:13;" transform="matrix(1 0 0 1 1289 1989)">design is preserved when submitting to Xcode.</text>
  <text id="template-version" style="stroke:none;fill:black;font-family:sans-serif;font-size:13;text-anchor:end;" transform="matrix(1 0 0 1 3036 1933)">Template v.7.0</text>
  <text style="stroke:none;fill:black;font-family:sans-serif;font-size:13;text-anchor:end;" transform="matrix(1 0 0 1 3036 1951)">Requires Xcode 17 or greater</text>
  <text id="descriptive-name" style="stroke:none;fill:black;font-family:sans-serif;font-size:13;text-anchor:end;" transform="matrix(1 0 0 1 3036 1969)">Generated from key.shield</text>
  <text style="stroke:none;fill:black;font-family:sans-serif;font-size:13;text-anchor:end;" transform="matrix(1 0 0 1 3036 1987)">Typeset at 100.0 points</text>
  <text style="stroke:none;fill:black;font-family:sans-serif;font-size:13;" transform="matrix(1 0 0 1 263 726)">Small</text>
  <text style="stroke:none;fill:black;font-family:sans-serif;font-size:13;" transform="matrix(1 0 0 1 263 1156)">Medium</text>
  <text style="stroke:none;fill:black;font-family:sans-serif;font-size:13;" transform="matrix(1 0 0 1 263 1586)">Large</text>
 </g>
 <g id="Guides">
  <g id="H-reference" style="fill:#27AAE1;stroke:none;" transform="matrix(1 0 0 1 339 696)">
   <path d="M0.993654 0L3.63775 0L29.3281-67.1323L30.0303-67.1323L30.0303-70.459L28.1226-70.459ZM11.6885-24.4799L46.9815-24.4799L46.2315-26.7285L12.4385-26.7285ZM55.1196 0L57.7637 0L30.6382-70.459L29.4326-70.459L29.4326-67.1323Z"/>
  </g>
  <line id="Baseline-S" style="fill:none;stroke:#27AAE1;opacity:1;stroke-width:0.5;" x1="263" x2="3036" y1="696" y2="696"/>
  <line id="Capline-S" style="fill:none;stroke:#27AAE1;opacity:1;stroke-width:0.5;" x1="263" x2="3036" y1="625.541" y2="625.541"/>
  <g id="H-reference" style="fill:#27AAE1;stroke:none;" transform="matrix(1 0 0 1 339 1126)">
   <path d="M0.993654 0L3.63775 0L29.3281-67.1323L30.0303-67.1323L30.0303-70.459L28.1226-70.459ZM11.6885-24.4799L46.9815-24.4799L46.2315-26.7285L12.4385-26.7285ZM55.1196 0L57.7637 0L30.6382-70.459L29.4326-70.459L29.4326-67.1323Z"/>
  </g>
  <line id="Baseline-M" style="fill:none;stroke:#27AAE1;opacity:1;stroke-width:0.5;" x1="263" x2="3036" y1="1126" y2="1126"/>
  <line id="Capline-M" style="fill:none;stroke:#27AAE1;opacity:1;stroke-width:0.5;" x1="263" x2="3036" y1="1055.54" y2="1055.54"/>
  <g id="H-reference" style="fill:#27AAE1;stroke:none;" transform="matrix(1 0 0 1 339 1556)">
   <path d="M0.993654 0L3.63775 0L29.3281-67.1323L30.0303-67.1323L30.0303-70.459L28.1226-70.459ZM11.6885-24.4799L46.9815-24.4799L46.2315-26.7285L12.4385-26.7285ZM55.1196 0L57.7637 0L30.6382-70.459L29.4326-70.459L29.4326-67.1323Z"/>
  </g>
  <line id="Baseline-L" style="fill:none;stroke:#27AAE1;opacity:1;stroke-width:0.5;" x1="263" x2="3036" y1="1556" y2="1556"/>
  <line id="Capline-L" style="fill:none;stroke:#27AAE1;opacity:1;stroke-width:0.5;" x1="263" x2="3036" y1="1485.54" y2="1485.54"/>
  <line id="right-margin-Black-S" style="fill:none;stroke:#00AEEF;stroke-width:0.5;opacity:1.0;" x1="2978.03" x2="2978.03" y1="600.785" y2="720.121"/>
  <line id="left-margin-Black-S" style="fill:none;stroke:#00AEEF;stroke-width:0.5;opacity:1.0;" x1="2888.77" x2="2888.77" y1="600.785" y2="720.121"/>
  <line id="right-margin-Regular-S" style="fill:none;stroke:#00AEEF;stroke-width:0.5;opacity:1.0;" x1="1491.89" x2="1491.89" y1="600.785" y2="720.121"/>
  <line id="left-margin-Regular-S" style="fill:none;stroke:#00AEEF;stroke-width:0.5;opacity:1.0;" x1="1407.8" x2="1407.8" y1="600.785" y2="720.121"/>
  <line id="right-margin-Ultralight-S" style="fill:none;stroke:#00AEEF;stroke-width:0.5;opacity:1.0;" x1="599.164" x2="599.164" y1="600.785" y2="720.121"/>
  <line id="left-margin-Ultralight-S" style="fill:none;stroke:#00AEEF;stroke-width:0.5;opacity:1.0;" x1="520.258" x2="520.258" y1="600.785" y2="720.121"/>
 </g>
 <g id="Symbols">
  <g id="Black-S" transform="matrix(1 0 0 1 2888.77 696)">
   <path class="monochrome-0 multicolor-0:tintColor hierarchical-0:secondary SFSymbolsPreviewWireframe" d="M44.6289 5.61523C45.6055 5.61523 46.875 5.17578 47.9004 4.6875C71.0449-6.34766 79.4922-13.4766 79.4922-27.3438L79.4922-54.4922C79.4922-61.6699 77.5879-64.9902 70.9961-67.8223C68.0176-69.0918 55.0781-73.0469 52.5879-73.7793C50.1465-74.5117 46.9727-74.9512 44.6289-74.9512C42.2852-74.9512 39.1113-74.4629 36.6699-73.7793C34.1797-73.0957 21.2402-69.0918 18.2617-67.8223C11.6699-64.9902 9.76562-61.6699 9.76562-54.4922L9.76562-27.3438C9.76562-13.4766 18.2129-6.34766 41.3574 4.6875C42.3828 5.17578 43.6523 5.61523 44.6289 5.61523ZM44.6289-7.91016C44.3848-7.91016 44.1895-7.95898 43.2617-8.54492C26.709-18.9941 22.4121-20.5078 22.4121-28.8086L22.4121-53.125C22.4121-54.7852 22.8516-55.5176 24.0234-56.0059C28.8574-58.0078 38.4766-61.1328 40.2344-61.6699C42.3828-62.3047 43.457-62.5977 44.6289-62.5977C45.8008-62.5977 46.875-62.3047 49.0234-61.6699C50.7812-61.1328 60.4004-58.0078 65.2344-56.0059C66.4062-55.5176 66.8457-54.7852 66.8457-53.125L66.8457-28.8086C66.8457-20.1172 61.377-17.4316 45.9961-8.54492C45.0684-8.00781 44.873-7.91016 44.6289-7.91016Z"/>
   <path class="monochrome-1 multicolor-1:tintColor hierarchical-1:primary SFSymbolsPreviewWireframe" d="M44.6289-58.3008C37.6465-58.3008 32.0801-52.7344 32.0801-45.8008C32.0801-41.0156 34.668-36.6699 38.916-34.5703L38.916-19.2383C38.916-18.4082 39.2578-17.4316 39.8926-16.8457L43.3594-13.8672C44.2383-13.1348 45.6055-13.0859 46.5332-14.0137L51.8555-19.3359C52.9297-20.4102 52.8809-22.0703 51.8555-23.1445L49.9023-25.0977L53.0762-28.3203C54.1016-29.3945 54.1504-31.0059 53.0762-32.1289L50.4395-34.7656C54.7852-37.3047 57.1777-41.2598 57.1777-45.8008C57.1777-52.7344 51.6113-58.3008 44.6289-58.3008ZM44.6289-47.1191C42.8711-47.1191 41.4551-48.5352 41.4551-50.293C41.4551-52.0508 42.8711-53.4668 44.6289-53.4668C46.3867-53.4668 47.8027-52.0508 47.8027-50.293C47.8027-48.5352 46.3867-47.1191 44.6289-47.1191Z"/>
  </g>
  <g id="Regular-S" transform="matrix(1 0 0 1 1407.8 696)">
   <path class="monochrome-0 multicolor-0:tintColor hierarchical-0:secondary SFSymbolsPreviewWireframe" d="M42.041 4.78516C42.5781 4.78516 43.5547 4.58984 44.6289 4.00391C66.5527-8.00781 74.3164-13.4766 74.3164-27.9297L74.3164-57.3242C74.3164-61.3281 72.4121-62.5488 69.3848-63.8672C65.4297-65.5762 49.2676-71.2891 45.3125-72.6562C44.2871-72.998 43.1641-73.2422 42.041-73.2422C40.918-73.2422 39.7461-72.9004 38.7695-72.6562C34.8145-71.6797 18.6523-65.5273 14.6973-63.8672C11.6699-62.5977 9.76562-61.3281 9.76562-57.3242L9.76562-27.9297C9.76562-13.4766 17.5293-8.05664 39.4531 4.00391C40.5273 4.58984 41.5039 4.78516 42.041 4.78516ZM42.041-3.22266C41.4551-3.22266 40.8691-3.36914 39.5508-4.10156C21.9238-14.6484 16.6992-17.7734 16.6992-29.6387L16.6992-56.0059C16.6992-56.8848 16.8945-57.2754 17.6758-57.6172C23.9258-60.0586 34.4727-63.4277 40.7227-65.918C41.2109-66.1133 41.6504-66.1621 42.041-66.1621C42.4316-66.1621 42.8711-66.1133 43.3594-65.918C49.5605-63.4277 59.9609-59.7656 66.3574-57.6172C67.1875-57.3242 67.334-56.8848 67.334-56.0059L67.334-29.6387C67.334-17.7734 62.1094-14.6484 44.4824-4.10156C43.2129-3.36914 42.627-3.22266 42.041-3.22266Z"/>
   <path class="monochrome-1 multicolor-1:tintColor hierarchical-1:primary SFSymbolsPreviewWireframe" d="M42.0898-59.3262C35.1562-59.3262 29.541-53.7598 29.541-46.7773C29.541-41.5527 32.6172-36.9629 37.5488-35.0586L37.5488-15.918C37.5488-15.3809 37.6953-15.0391 38.0371-14.5996L41.3574-11.3281C41.6504-10.9863 42.4316-10.8398 42.8223-11.3281L49.0723-17.4805C49.4629-17.9199 49.4141-18.6035 49.0723-18.9941L45.2637-22.7539L50.4883-27.9297C50.8789-28.3203 50.8789-29.0039 50.4395-29.4434L45.3125-34.6191C51.2695-37.0117 54.5898-41.4551 54.5898-46.7773C54.5898-53.7109 49.0723-59.3262 42.0898-59.3262ZM42.0898-47.0703C40.0391-47.0703 38.4277-48.6816 38.4277-50.6836C38.4277-52.7344 40.0391-54.3457 42.0898-54.3457C44.1406-54.3457 45.7031-52.7344 45.7031-50.6836C45.7031-48.6816 44.1406-47.0703 42.0898-47.0703Z"/>
  </g>
  <g id="Ultralight-S" transform="matrix(1 0 0 1 520.258 696)">
   <path class="monochrome-0 multicolor-0:tintColor hierarchical-0:secondary SFSymbolsPreviewWireframe" d="M39.4527 2.78713C40.3076 2.78713 41.2842 2.31935 41.9497 1.91506C62.7837-10.8232 69.1397-14.6572 69.1397-26.3858L69.1397-55.1445C69.1397-59.3755 68.0528-60.7778 63.981-62.3233C56.9381-65.0313 49.313-68.1104 42.2246-70.6128C41.2447-70.9546 40.3941-71.1987 39.4527-71.1987C38.5112-71.1987 37.6572-70.9478 36.6807-70.6128C29.6377-67.9561 21.9673-65.0278 14.8789-62.3233C10.8525-60.8267 9.76562-59.3755 9.76562-55.1445L9.76562-26.3858C9.76562-14.6572 16.2578-11.0991 36.9556 1.91506C37.6211 2.31935 38.5977 2.78713 39.4527 2.78713ZM39.4527 0.546357C38.7759 0.546357 37.9629 0.0820041 37.4619-0.287139C19.6079-11.9238 11.9766-15.1397 11.9766-26.46L11.9766-54.7344C11.9766-57.7476 12.5352-58.8647 14.6787-59.706C18.4766-61.2392 33.1558-66.8789 37.0445-68.3247C37.9868-68.747 38.9258-68.9775 39.4527-68.9775C39.9795-68.9775 40.8277-68.7016 41.8154-68.3247C45.7007-66.8789 60.3696-61.2187 64.2232-59.706C66.3701-58.8682 66.9253-57.7476 66.9253-54.7344L66.9253-26.46C66.9253-15.1397 59.2031-12.0601 41.44-0.287139C40.9424 0.0820041 40.1294 0.546357 39.4527 0.546357Z"/>
   <path class="monochrome-1 multicolor-1:tintColor hierarchical-1:primary SFSymbolsPreviewWireframe" d="M39.4561-59.1445C32.6587-59.1445 27.2705-53.7144 27.2705-46.959C27.2705-41.7798 30.4375-37.1899 35.3237-35.4219L35.3237-15.7363C35.3237-15.4263 35.4248-15.0391 35.7212-14.7358L38.9507-11.5552C39.2437-11.2134 39.6616-11.2031 39.9614-11.5098L46.166-17.7075C46.375-17.9653 46.3716-18.2856 46.166-18.54L41.9488-22.6631L47.6275-28.2021C47.8364-28.4565 47.8364-28.8223 47.5786-29.0801L41.8614-34.8008C48.0908-37.1025 51.6382-41.5459 51.6382-46.959C51.6382-53.7109 46.2569-59.1445 39.4561-59.1445ZM39.4561-47.6606C37.6323-47.6606 36.1572-49.1357 36.1572-50.9561C36.1572-52.7798 37.6323-54.2549 39.4561-54.2549C41.2798-54.2549 42.7515-52.7798 42.7515-50.9561C42.7515-49.1357 41.2798-47.6606 39.4561-47.6606Z"/>
  </g>
 </g>
</svg>
